<svg xmlns="http://www.w3.org/2000/svg" viewBox="0 0 1200 630" width="1200" height="630">
  
  <defs>
    <linearGradient id="bg" x1="0" y1="0" x2="1" y2="1">
      <stop offset="0%" stop-color="#1A1540"></stop>
      <stop offset="60%" stop-color="#2A2566"></stop>
      <stop offset="100%" stop-color="#3A2D75"></stop>
    </linearGradient>
    <radialGradient id="glow" cx="0.85" cy="0.15" r="0.6">
      <stop offset="0%" stop-color="#6B63B5" stop-opacity="0.55"></stop>
      <stop offset="100%" stop-color="#6B63B5" stop-opacity="0"></stop>
    </radialGradient>
    <linearGradient id="chartGrad" x1="0" y1="0" x2="0" y2="1">
      <stop offset="0%" stop-color="#6B63B5" stop-opacity="0.4"></stop>
      <stop offset="100%" stop-color="#6B63B5" stop-opacity="0"></stop>
    </linearGradient>
  </defs>

  <rect width="1200" height="630" fill="url(#bg)"></rect>
  <rect width="1200" height="630" fill="url(#glow)"></rect>

  
  <g stroke="rgba(255,255,255,0.04)" stroke-width="1">
    <line x1="0" y1="200" x2="1200" y2="200"></line>
    <line x1="0" y1="330" x2="1200" y2="330"></line>
    <line x1="0" y1="460" x2="1200" y2="460"></line>
  </g>

  
  <g transform="translate(80, 92)">
    <rect width="62" height="62" rx="14" fill="#6B63B5"></rect>
    <circle cx="31" cy="31" r="14" fill="none" stroke="#fff" stroke-width="3.5" stroke-linecap="round" stroke-dasharray="36 65" transform="rotate(-45 31 31)"></circle>
    <circle cx="31" cy="31" r="5" fill="#fff"></circle>
  </g>
  <text x="160" y="138" font-family="Noto Serif Georgian, Georgia, serif" font-size="56" font-weight="700" fill="#fff" letter-spacing="-0.02em">bihub</text>
  <text x="370" y="138" font-family="Noto Sans Georgian, Inter, sans-serif" font-size="14" font-weight="500" fill="#B5B0D8" letter-spacing="0.18em">BY BIVISION</text>

  
  <g transform="translate(80, 200)">
    <rect width="380" height="36" rx="18" fill="rgba(31, 79, 224, 0.18)" stroke="rgba(31, 79, 224, 0.4)"></rect>
    <circle cx="18" cy="18" r="4" fill="#9189D0"></circle>
    <text x="34" y="23" font-family="Noto Sans Georgian, sans-serif" font-size="12" font-weight="700" fill="#B5B0D8" letter-spacing="0.1em">QLIK SENSE BI · საქართველოს მონაცემთა ჰაბი</text>
  </g>

  
  <text x="80" y="310" font-family="Noto Serif Georgian, Georgia, serif" font-size="60" font-weight="700" fill="#fff" letter-spacing="-0.025em">ბიზნეს და საჯარო მონაცემები —</text>
  <text x="80" y="378" font-family="Noto Serif Georgian, Georgia, serif" font-style="italic" font-size="60" font-weight="500" fill="#9189D0" letter-spacing="-0.025em">ერთ სივრცეში.</text>

  
  <g transform="translate(80, 460)">
    <text x="0" y="0" font-family="Noto Serif Georgian, Georgia, serif" font-size="46" font-weight="700" fill="#fff" letter-spacing="-0.025em">16</text>
    <text x="0" y="36" font-family="Noto Sans Georgian, sans-serif" font-size="13" font-weight="600" fill="#8C86AD" letter-spacing="0.06em">ANALYTICS</text>

    <text x="180" y="0" font-family="Noto Serif Georgian, Georgia, serif" font-size="46" font-weight="700" fill="#fff" letter-spacing="-0.025em">7,000<tspan fill="#9189D0">+</tspan></text>
    <text x="180" y="36" font-family="Noto Sans Georgian, sans-serif" font-size="13" font-weight="600" fill="#8C86AD" letter-spacing="0.06em">USERS</text>

    <text x="430" y="0" font-family="Noto Serif Georgian, Georgia, serif" font-size="46" font-weight="700" fill="#fff" letter-spacing="-0.025em">150<tspan fill="#9189D0">+</tspan></text>
    <text x="430" y="36" font-family="Noto Sans Georgian, sans-serif" font-size="13" font-weight="600" fill="#8C86AD" letter-spacing="0.06em">COMPANIES</text>

    <text x="650" y="0" font-family="Noto Serif Georgian, Georgia, serif" font-size="46" font-weight="700" fill="#fff" letter-spacing="-0.025em">12<tspan fill="#9189D0">+</tspan></text>
    <text x="650" y="36" font-family="Noto Sans Georgian, sans-serif" font-size="13" font-weight="600" fill="#8C86AD" letter-spacing="0.06em">SOURCES</text>
  </g>

  
  <g transform="translate(740, 200)" opacity="0.85">
    <path d="M0 140 L40 120 L80 130 L120 95 L160 110 L200 75 L240 90 L280 60 L320 70 L360 30 L380 25" fill="none" stroke="#9189D0" stroke-width="3" stroke-linejoin="round" stroke-linecap="round"></path>
    <path d="M0 140 L40 120 L80 130 L120 95 L160 110 L200 75 L240 90 L280 60 L320 70 L360 30 L380 25 L380 200 L0 200 Z" fill="url(#chartGrad)"></path>
    <circle cx="380" cy="25" r="6" fill="#9189D0" stroke="#fff" stroke-width="2"></circle>
  </g>

  
  <text x="80" y="588" font-family="Noto Sans Georgian, sans-serif" font-size="14" font-weight="500" fill="#8C86AD" letter-spacing="0.04em">bihub.ge · Bivision-ის პროდუქტი · სრულიად უფასო · Qlik Sense BI</text>
</svg>